<svg xmlns="http://www.w3.org/2000/svg" viewBox="0 0 1631.2 254.9"><defs><style>.cls-1{fill:#178229;}.cls-2{fill:#fff;}</style></defs><g id="Layer_2" data-name="Layer 2"><g id="Logo"><path class="cls-1" d="M271.11,19.42c-27.4,1.55-81.86,7.21-115.48,27.79A7.7,7.7,0,0,0,152,53.8V235.73c0,5.78,6.32,9.43,11.64,6.75C198.22,225.07,248.25,220.32,273,219a15.6,15.6,0,0,0,15-15.33V34.77C288,25.91,280.32,18.9,271.11,19.42ZM132.37,47.21C98.75,26.63,44.29,21,16.89,19.42,7.68,18.9,0,25.91,0,34.77V203.69A15.59,15.59,0,0,0,15,219c24.75,1.3,74.8,6.06,109.39,23.48,5.31,2.67,11.6-1,11.6-6.73V53.71A7.54,7.54,0,0,0,132.37,47.21Z" transform="translate(0 -19.39)"/><path class="cls-1" d="M451.47,214.23H352V35.77h99.49V54.2H372.73v57.5h74V130h-74v65.67h78.74Z" transform="translate(0 -19.39)"/><path class="cls-1" d="M571,196.29h-1.09q-14,20.39-42,20.39-26.24,0-40.83-18t-14.59-51q0-33.09,14.65-51.4T527.86,78q27.23,0,41.75,19.78h1.59l-.86-9.65-.48-9.39V24.29h20.26V214.23H573.64Zm-40.52,3.42q20.75,0,30.09-11.29T569.86,152v-4.27q0-28.45-9.46-40.59T530.18,95q-17.82,0-27.28,13.86T493.44,148q0,25.63,9.4,38.7T530.43,199.71Z" transform="translate(0 -19.39)"/><path class="cls-1" d="M735.74,80.45V93.26L711,96.19a43.5,43.5,0,0,1,8.78,26.74q0,19.65-13.42,31.37T669.45,166a61.45,61.45,0,0,1-11.23-1q-12.94,6.84-12.94,17.21a8.75,8.75,0,0,0,4.52,8.12q4.51,2.63,15.5,2.62H689q21.74,0,33.39,9.16T734,228.76q0,22.22-17.83,33.87t-52,11.66q-26.25,0-40.46-9.76t-14.23-27.59a31,31,0,0,1,7.82-21.12q7.8-8.91,22-12.08a21.21,21.21,0,0,1-8.61-7.21,19,19,0,0,1-3.48-11.35,21.61,21.61,0,0,1,3.91-12.82q3.9-5.49,12.33-10.62a36.13,36.13,0,0,1-16.91-14.52A42.73,42.73,0,0,1,620,123.78q0-22,13.19-33.87T670.55,78a67.78,67.78,0,0,1,18.92,2.45ZM629.05,236.7q0,10.86,9.15,16.47t26.25,5.62q25.5,0,37.78-7.63t12.27-20.69q0-10.87-6.72-15.08t-25.27-4.21H658.22q-13.8,0-21.48,6.59T629.05,236.7Zm11-113.41q0,14,7.94,21.24t22.09,7.2q29.67,0,29.66-28.8,0-30.15-30-30.16-14.3,0-22,7.69T640,123.29Z" transform="translate(0 -19.39)"/><path class="cls-1" d="M810,216.68q-29.65,0-46.81-18.07t-17.15-50.17q0-32.35,15.93-51.39T804.8,78q25.14,0,39.79,16.54t14.65,43.64V151H767.08q.6,23.57,11.9,35.77t31.8,12.2a107.79,107.79,0,0,0,42.72-9V208a107.08,107.08,0,0,1-20.32,6.65A114.42,114.42,0,0,1,810,216.68ZM804.55,95q-16.11,0-25.69,10.5t-11.3,29.05h70q0-19.16-8.54-29.36T804.55,95Z" transform="translate(0 -19.39)"/><path class="cls-2" d="M890.66,214.23V35.77h20.75V195.44h78.74v18.79Z" transform="translate(0 -19.39)"/><path class="cls-2" d="M1067.49,216.68q-29.67,0-46.81-18.07t-17.16-50.17q0-32.35,15.94-51.39t42.78-19q25.14,0,39.8,16.54t14.64,43.64V151h-92.16q.62,23.57,11.9,35.77t31.8,12.2a107.8,107.8,0,0,0,42.73-9V208a107.39,107.39,0,0,1-20.33,6.65A114.39,114.39,0,0,1,1067.49,216.68ZM1062,95q-16.12,0-25.7,10.5T1025,134.52h70q0-19.16-8.55-29.36T1062,95Z" transform="translate(0 -19.39)"/><path class="cls-2" d="M1237.54,196.29h-1.09q-14,20.39-42,20.39-26.23,0-40.83-18t-14.59-51q0-33.09,14.65-51.4T1194.45,78q27.22,0,41.75,19.78h1.59l-.86-9.65-.48-9.39V24.29h20.26V214.23h-16.48ZM1197,199.71q20.74,0,30.09-11.29t9.34-36.44v-4.27q0-28.45-9.46-40.59T1196.77,95q-17.82,0-27.28,13.86T1160,148q0,25.63,9.4,38.7T1197,199.71Z" transform="translate(0 -19.39)"/><path class="cls-2" d="M1402.32,80.45V93.26l-24.78,2.93a43.42,43.42,0,0,1,8.79,26.74q0,19.65-13.42,31.37T1336,166a61.45,61.45,0,0,1-11.23-1q-12.94,6.84-12.94,17.21a8.74,8.74,0,0,0,4.52,8.12q4.52,2.63,15.5,2.62h23.68q21.73,0,33.39,9.16t11.66,26.61q0,22.22-17.83,33.87t-52,11.66q-26.25,0-40.46-9.76t-14.23-27.59a31,31,0,0,1,7.82-21.12q7.8-8.91,22-12.08a21.21,21.21,0,0,1-8.61-7.21,19,19,0,0,1-3.48-11.35,21.54,21.54,0,0,1,3.91-12.82q3.9-5.49,12.33-10.62a36.13,36.13,0,0,1-16.91-14.52,42.73,42.73,0,0,1-6.53-23.44q0-22,13.19-33.87T1337.14,78a67.83,67.83,0,0,1,18.92,2.45ZM1295.63,236.7q0,10.86,9.16,16.47t26.25,5.62q25.5,0,37.78-7.63t12.26-20.69q0-10.87-6.71-15.08t-25.27-4.21h-24.29q-13.8,0-21.48,6.59T1295.63,236.7Zm11-113.41q0,14,7.94,21.24t22.09,7.2q29.67,0,29.66-28.8,0-30.15-30-30.16-14.28,0-22,7.69T1306.62,123.29Z" transform="translate(0 -19.39)"/><path class="cls-2" d="M1476.63,216.68q-29.66,0-46.81-18.07t-17.15-50.17q0-32.35,15.93-51.39t42.78-19q25.15,0,39.8,16.54t14.65,43.64V151h-92.17q.61,23.57,11.91,35.77t31.8,12.2a107.79,107.79,0,0,0,42.72-9V208a107.31,107.31,0,0,1-20.32,6.65A114.42,114.42,0,0,1,1476.63,216.68ZM1471.14,95q-16.11,0-25.69,10.5t-11.3,29.05h69.95q0-19.16-8.55-29.36T1471.14,95Z" transform="translate(0 -19.39)"/><path class="cls-2" d="M1615.21,78a79,79,0,0,1,16,1.47l-2.81,18.8a69.06,69.06,0,0,0-14.65-1.83q-16.23,0-27.77,13.18t-11.53,32.84v71.77h-20.27V80.45h16.73l2.32,24.77h1q7.45-13.05,18-20.14A40.47,40.47,0,0,1,1615.21,78Z" transform="translate(0 -19.39)"/></g></g></svg>